<?xml version="1.0" standalone="no"?>
<!DOCTYPE svg PUBLIC "-//W3C//DTD SVG 20010904//EN"
 "http://www.w3.org/TR/2001/REC-SVG-20010904/DTD/svg10.dtd">
<svg version="1.0" xmlns="http://www.w3.org/2000/svg"
 width="728.000000pt" height="577.000000pt" viewBox="0 0 728.000000 577.000000"
 preserveAspectRatio="xMidYMid meet">

<g transform="translate(0.000000,577.000000) scale(0.100000,-0.100000)"
fill="#000000" stroke="none">
<path d="M3641 4260 l-1 -1474 138 135 c75 74 178 174 227 222 l90 87 117 0
118 0 116 232 c134 268 146 266 -116 18 -194 -183 -240 -225 -240 -214 0 5
-34 197 -76 427 -42 230 -74 421 -71 424 9 8 138 -33 235 -76 210 -92 371
-210 503 -369 144 -173 229 -331 280 -517 11 -44 22 -81 23 -82 5 -5 348 -65
352 -60 8 7 -46 235 -73 306 -82 219 -208 414 -379 585 -261 261 -543 411
-913 486 l-86 17 -122 664 -121 664 -1 -1475z"/>
<path d="M3284 4380 c-247 -56 -532 -192 -719 -343 -287 -232 -510 -593 -582
-940 l-17 -84 -260 -48 c-144 -26 -319 -58 -391 -71 -121 -21 -589 -106 -645
-117 -35 -7 1165 2 1848 14 750 12 1092 12 1092 -1 0 -5 4 -10 9 -10 5 0 -94
102 -220 227 l-229 227 0 119 0 118 -217 106 c-120 58 -222 108 -228 110 -5 3
65 -70 156 -163 193 -196 279 -287 275 -291 -2 -2 -187 -37 -412 -78 -225 -41
-420 -77 -432 -80 -22 -5 -23 -4 -17 27 28 127 117 328 199 452 169 253 462
463 762 548 l80 23 22 125 c24 136 26 150 15 149 -5 0 -44 -9 -89 -19z"/>
<path d="M3650 2772 c0 -4 100 -107 223 -230 180 -180 227 -222 249 -222 22 0
754 127 836 145 30 7 29 -7 -14 -134 -70 -209 -154 -349 -309 -510 -191 -199
-373 -309 -630 -382 -44 -13 -82 -24 -84 -25 -3 -3 -60 -280 -61 -295 0 -8
111 8 205 30 417 100 782 353 1029 716 97 142 180 347 230 570 l23 100 149 27
c121 22 512 92 1069 192 59 10 -97 13 -1005 19 -1393 9 -1910 9 -1910 -1z"/>
<path d="M3403 2538 c-143 -142 -223 -229 -223 -242 0 -11 39 -213 86 -449 47
-236 84 -430 82 -432 -2 -2 -41 8 -88 22 -438 126 -790 463 -934 894 -20 59
-36 114 -36 123 0 18 -3 19 -165 47 -66 11 -128 22 -137 25 -23 7 -24 -26 -3
-116 83 -352 274 -667 547 -897 227 -192 511 -328 786 -379 50 -9 93 -21 95
-28 2 -6 51 -247 108 -535 l104 -524 3 682 c1 376 1 986 0 1357 l-3 674 -222
-222z"/>
<path d="M2829 2089 c-60 -122 -108 -223 -106 -225 3 -4 323 319 416 420 l24
26 -111 0 -112 0 -111 -221z"/>
<path d="M4090 2198 c0 -56 4 -108 8 -115 7 -11 429 -223 445 -223 8 0 -430
433 -444 438 -5 2 -9 -43 -9 -100z"/>
</g>
</svg>
